# xmcd
#
# Track frame offsets:
#	150
#	13269
#	27392
#	41888
#	55412
#	66137
#	81338
#	99620
#	108856
#	117416
#	131562
#	146228
#	160962
#	174530
#
# Disc length: 2538 seconds
#
# Revision: 0
# Processed by: cddbd v1.5.2PL0 Copyright (c) Steve Scherf et al.
# Submitted via: EasyCDDAExtractor 16.0.6.1
#
DISCID=cd09e80e
DTITLE=Συλλογικός δίσκος - Τα καλύτερα ρεμπέτικα-Λύρα   
DYEAR=1996
DGENRE=Ρεμπέτικη
TTITLE0=Γκόγκος Δημήτρης ή Μπαγιαντέρας - Σαν μαγεμένο το μυαλό μου [Δημήτρη Γ
TTITLE0=κόγκου Μπαγιαντέρα]
TTITLE1=Μπέλλου Σωτηρία - Δυό πόρτες έχει η ζωή [Στέλιου Καζαντζίδη]
TTITLE2=Νίνου Μαρίκα - Ζαΐρα [Βασίλη Τσιτσάνη-Κώστα Βίρβου]
TTITLE3=Σκαρπέλης Κούλης-Μπέλλου Σωτηρία - Είμαστε φίλοι [Γιάννη Παπαϊωάννου]
TTITLE4=Μουφλουζέλης Γιώργος - Εγώ δεν έχω βγάλει το σχολείο [Γιώργου Μουφλουζ
TTITLE4=έλη]
TTITLE5=Σακελλαρίου Ρίτα - Τα λιμάνια [Βασίλη Τσιτσάνη]
TTITLE6=Καζαντζίδης Στέλιος - Γιατί με ξύπνησες πρωΐ [Βασίλη Τσιτσάνη]
TTITLE7=Χρυσάφη Άννα - Μπαξέ Τσιφλίκι [Βασίλη Τσιτσάνη]
TTITLE8=Τσιτσάνης Βασίλης - Αρχόντισσα [Βασίλη Τσιτσάνη]
TTITLE9=Καπλάνης Κώστας - Είμαι απόψε στα μεράκια [Κώστα Καπλάνη-Χαράλαμπου Βα
TTITLE9=σιλειάδη]
TTITLE10=Κύπριος Στράτος - Τό 'ξερα πως θα μού φύγεις [Βασίλη Τσιτσάνη]
TTITLE11=Μπέλλου Σωτηρία - Χωρίσαμε ένα δειλινό [Βασίλη Τσιτσάνη]
TTITLE12=Νέγκρη Πίτσα-Κυριαζής Γιάννης - Σβήσε το φως να κοιμηθούμε [Γιάννη Πα
TTITLE12=παϊωάννου-Χαρ. Βασιλειάδη]
TTITLE13=Τσιτσάνης Βασίλης-Νίνου Μαρίκα - Απόψε κάνεις μπαμ [Βασίλη Τσιτσάνη]
EXTD=
EXTT0=
EXTT1=
EXTT2=
EXTT3=
EXTT4=
EXTT5=
EXTT6=
EXTT7=
EXTT8=
EXTT9=
EXTT10=
EXTT11=
EXTT12=
EXTT13=
PLAYORDER=
